<svg xmlns="http://www.w3.org/2000/svg" width="27" height="20.25" viewBox="0 0 27 20.25">
  <g id="envelope_1_" data-name="envelope (1)" transform="translate(0 -64)">
    <g id="Group_35" data-name="Group 35" transform="translate(0 64)">
      <g id="Group_34" data-name="Group 34">
        <path id="Path_60" data-name="Path 60" d="M7.113,65.643c3.706,3.138,10.208,8.659,12.119,10.381a1.129,1.129,0,0,0,1.633,0c1.913-1.723,8.415-7.245,12.121-10.383a.562.562,0,0,0,.079-.776A2.234,2.234,0,0,0,31.3,64H8.8a2.234,2.234,0,0,0-1.765.867A.562.562,0,0,0,7.113,65.643Z" transform="translate(-6.549 -64)" fill="#8f6b6c"/>
        <path id="Path_61" data-name="Path 61" d="M26.674,126.464a.56.56,0,0,0-.6.081c-4.109,3.484-9.354,7.949-11,9.436a2.278,2.278,0,0,1-3.14,0c-1.759-1.585-7.649-6.592-11-9.435a.563.563,0,0,0-.926.429V141.12a2.252,2.252,0,0,0,2.25,2.25h22.5A2.252,2.252,0,0,0,27,141.12V126.974A.562.562,0,0,0,26.674,126.464Z" transform="translate(0 -123.12)" fill="#8f6b6c"/>
      </g>
    </g>
  </g>
</svg>
