<svg id="phone-call" xmlns="http://www.w3.org/2000/svg" width="24.4" height="24.4" viewBox="0 0 24.4 24.4">
  <g id="Group_36" data-name="Group 36">
    <path id="Path_62" data-name="Path 62" d="M22.474,16.066a13.95,13.95,0,0,1-4.377-.7,1.875,1.875,0,0,0-1.9.4l-2.77,2.092A15.473,15.473,0,0,1,6.537,10.98l2.035-2.7a1.944,1.944,0,0,0,.476-1.965,13.944,13.944,0,0,1-.7-4.384A1.929,1.929,0,0,0,6.421,0H1.926A1.929,1.929,0,0,0,0,1.926,22.5,22.5,0,0,0,22.474,24.4,1.929,1.929,0,0,0,24.4,22.474V17.992A1.929,1.929,0,0,0,22.474,16.066Z" fill="#8f6b6c"/>
  </g>
</svg>
