<?xml version="1.0" encoding="UTF-8"?>
<svg version="1.1" xmlns="http://www.w3.org/2000/svg" width="30" height="30">
<path d="M0 0 C9.9 0 19.8 0 30 0 C30 9.9 30 19.8 30 30 C20.1 30 10.2 30 0 30 C0 20.1 0 10.2 0 0 Z " fill="#977677" transform="translate(0,0)"/>
<path d="M0 0 C1.65 0 3.3 0 5 0 C5.556875 1.03125 6.11375 2.0625 6.6875 3.125 C8.17481415 5.75312141 9.77287706 8.0312043 11.75 10.3125 C14 13 14 13 14 15 C13.34 15 12.68 15 12 15 C10.64482856 13.29870251 9.36477042 11.53714076 8.125 9.75 C5.63569949 6.17222208 3.17663209 2.99144726 0 0 Z " fill="#AE9495" transform="translate(7,7)"/>
</svg>
